<svg xmlns="http://www.w3.org/2000/svg" viewBox="0 0 900 1200" width="900" height="1200" role="img">
  <defs>
  
  <linearGradient id="f-batik-mega-mendung-cirebon-drape" x1="0" y1="0" x2="1" y2="0.4">
    <stop offset="0%" stop-color="#7d5f12"/>
    <stop offset="30%" stop-color="#f6e3a1"/>
    <stop offset="55%" stop-color="#c9a227"/>
    <stop offset="78%" stop-color="#f6e3a1"/>
    <stop offset="100%" stop-color="#7d5f12"/>
  </linearGradient>
  
  <pattern id="p-batik-mega-mendung-cirebon-drape" width="144" height="144" patternUnits="userSpaceOnUse">
    <rect width="144" height="144" fill="#0b2c53"/>
    
      <path d="M-10 24 q 26 -22 52 0 q 26 -22 52 0 q 26 -22 52 0 L154 84 L-10 84 Z"
            fill="#1f6bb0" opacity="0.95"/>
    
      <path d="M-10 54 q 26 -18.7 52 0 q 26 -18.7 52 0 q 26 -18.7 52 0 L154 114 L-10 114 Z"
            fill="#3f92cf" opacity="0.9"/>
    
      <path d="M-10 84 q 26 -15.399999999999999 52 0 q 26 -15.399999999999999 52 0 q 26 -15.399999999999999 52 0 L154 144 L-10 144 Z"
            fill="#8fd0ee" opacity="0.85"/>
    
      <path d="M-10 114 q 26 -12.100000000000001 52 0 q 26 -12.100000000000001 52 0 q 26 -12.100000000000001 52 0 L154 174 L-10 174 Z"
            fill="#0b2c53" opacity="0.75"/>
    <path d="M-10 24 q 26 -22 52 0 q 26 -22 52 0 q 26 -22 52 0" fill="none" stroke="#8fd0ee" stroke-width="2.5" opacity="0.7"/>
  </pattern>
  
  <pattern id="w-batik-mega-mendung-cirebon-drape" width="6" height="6" patternUnits="userSpaceOnUse">
    <rect width="6" height="6" fill="none"/>
    <path d="M0 0.5H6M0 3.5H6" stroke="#ffffff" stroke-width="0.6" opacity="0.16"/>
    <path d="M0.5 0V6M3.5 0V6" stroke="#000000" stroke-width="0.6" opacity="0.12"/>
  </pattern>
  
  <linearGradient id="d-batik-mega-mendung-cirebon-drape" x1="0" y1="0" x2="1" y2="1">
    <stop offset="0%" stop-color="#ffffff" stop-opacity="0.20"/>
    <stop offset="22%" stop-color="#000000" stop-opacity="0.16"/>
    <stop offset="44%" stop-color="#ffffff" stop-opacity="0.14"/>
    <stop offset="63%" stop-color="#000000" stop-opacity="0.20"/>
    <stop offset="82%" stop-color="#ffffff" stop-opacity="0.10"/>
    <stop offset="100%" stop-color="#000000" stop-opacity="0.26"/>
  </linearGradient>
  <radialGradient id="v-batik-mega-mendung-cirebon-drape" cx="50%" cy="42%" r="78%">
    <stop offset="55%" stop-color="#000000" stop-opacity="0"/>
    <stop offset="100%" stop-color="#000000" stop-opacity="0.42"/>
  </radialGradient>
  <linearGradient id="s-batik-mega-mendung-cirebon-drape" x1="0" y1="0" x2="0.7" y2="1">
    <stop offset="0%" stop-color="#ffffff" stop-opacity="0.22"/>
    <stop offset="40%" stop-color="#ffffff" stop-opacity="0"/>
  </linearGradient></defs>
  <rect width="900" height="1200" fill="#0b2c53"/>
  <g transform="scale(1.6)">
    <rect width="562.5" height="750" fill="url(#p-batik-mega-mendung-cirebon-drape)"/>
  </g>
  <rect width="900" height="1200" fill="url(#w-batik-mega-mendung-cirebon-drape)"/>
  <rect width="900" height="1200" fill="url(#d-batik-mega-mendung-cirebon-drape)"/>
  <rect width="900" height="1200" fill="url(#s-batik-mega-mendung-cirebon-drape)"/>
  <rect width="900" height="1200" fill="url(#v-batik-mega-mendung-cirebon-drape)"/>
  <g opacity="0.5">
    <path d="M0 0 V1200" stroke="#000" stroke-width="26" opacity="0.18"/>
    <path d="M900 0 V1200" stroke="#000" stroke-width="26" opacity="0.18"/>
  </g>
</svg>