<svg xmlns="http://www.w3.org/2000/svg" viewBox="0 0 1000 1250" width="1000" height="1250" role="img">
  <defs>
    
  
  <linearGradient id="f-batik-kawung-solo-sogan-fold" x1="0" y1="0" x2="1" y2="0.4">
    <stop offset="0%" stop-color="#7d5f12"/>
    <stop offset="30%" stop-color="#f6e3a1"/>
    <stop offset="55%" stop-color="#c9a227"/>
    <stop offset="78%" stop-color="#f6e3a1"/>
    <stop offset="100%" stop-color="#7d5f12"/>
  </linearGradient>
  
  <pattern id="p-batik-kawung-solo-sogan-fold" width="112" height="112" patternUnits="userSpaceOnUse">
    <rect width="112" height="112" fill="#d9c9a8"/>
    
      <ellipse cx="11" cy="28" rx="16" ry="25" fill="#5d3722"/><ellipse cx="45" cy="28" rx="16" ry="25" fill="#5d3722"/>
      <ellipse cx="28" cy="11" rx="25" ry="16" fill="#5d3722"/><ellipse cx="28" cy="45" rx="25" ry="16" fill="#5d3722"/>
      <ellipse cx="11" cy="28" rx="8" ry="13" fill="#a8794a"/><ellipse cx="45" cy="28" rx="8" ry="13" fill="#a8794a"/>
      <ellipse cx="28" cy="11" rx="13" ry="8" fill="#a8794a"/><ellipse cx="28" cy="45" rx="13" ry="8" fill="#a8794a"/>
      <circle cx="28" cy="28" r="4.5" fill="#2c1f16"/>
      <ellipse cx="67" cy="28" rx="16" ry="25" fill="#5d3722"/><ellipse cx="101" cy="28" rx="16" ry="25" fill="#5d3722"/>
      <ellipse cx="84" cy="11" rx="25" ry="16" fill="#5d3722"/><ellipse cx="84" cy="45" rx="25" ry="16" fill="#5d3722"/>
      <ellipse cx="67" cy="28" rx="8" ry="13" fill="#a8794a"/><ellipse cx="101" cy="28" rx="8" ry="13" fill="#a8794a"/>
      <ellipse cx="84" cy="11" rx="13" ry="8" fill="#a8794a"/><ellipse cx="84" cy="45" rx="13" ry="8" fill="#a8794a"/>
      <circle cx="84" cy="28" r="4.5" fill="#2c1f16"/>
      <ellipse cx="11" cy="84" rx="16" ry="25" fill="#5d3722"/><ellipse cx="45" cy="84" rx="16" ry="25" fill="#5d3722"/>
      <ellipse cx="28" cy="67" rx="25" ry="16" fill="#5d3722"/><ellipse cx="28" cy="101" rx="25" ry="16" fill="#5d3722"/>
      <ellipse cx="11" cy="84" rx="8" ry="13" fill="#a8794a"/><ellipse cx="45" cy="84" rx="8" ry="13" fill="#a8794a"/>
      <ellipse cx="28" cy="67" rx="13" ry="8" fill="#a8794a"/><ellipse cx="28" cy="101" rx="13" ry="8" fill="#a8794a"/>
      <circle cx="28" cy="84" r="4.5" fill="#2c1f16"/>
      <ellipse cx="67" cy="84" rx="16" ry="25" fill="#5d3722"/><ellipse cx="101" cy="84" rx="16" ry="25" fill="#5d3722"/>
      <ellipse cx="84" cy="67" rx="25" ry="16" fill="#5d3722"/><ellipse cx="84" cy="101" rx="25" ry="16" fill="#5d3722"/>
      <ellipse cx="67" cy="84" rx="8" ry="13" fill="#a8794a"/><ellipse cx="101" cy="84" rx="8" ry="13" fill="#a8794a"/>
      <ellipse cx="84" cy="67" rx="13" ry="8" fill="#a8794a"/><ellipse cx="84" cy="101" rx="13" ry="8" fill="#a8794a"/>
      <circle cx="84" cy="84" r="4.5" fill="#2c1f16"/>
    
      <ellipse cx="39" cy="56" rx="16" ry="25" fill="#5d3722"/><ellipse cx="73" cy="56" rx="16" ry="25" fill="#5d3722"/>
      <ellipse cx="56" cy="39" rx="25" ry="16" fill="#5d3722"/><ellipse cx="56" cy="73" rx="25" ry="16" fill="#5d3722"/>
      <ellipse cx="39" cy="56" rx="8" ry="13" fill="#a8794a"/><ellipse cx="73" cy="56" rx="8" ry="13" fill="#a8794a"/>
      <ellipse cx="56" cy="39" rx="13" ry="8" fill="#a8794a"/><ellipse cx="56" cy="73" rx="13" ry="8" fill="#a8794a"/>
      <circle cx="56" cy="56" r="4.5" fill="#2c1f16"/>
  </pattern>
  
  <pattern id="w-batik-kawung-solo-sogan-fold" width="6" height="6" patternUnits="userSpaceOnUse">
    <rect width="6" height="6" fill="none"/>
    <path d="M0 0.5H6M0 3.5H6" stroke="#ffffff" stroke-width="0.6" opacity="0.16"/>
    <path d="M0.5 0V6M3.5 0V6" stroke="#000000" stroke-width="0.6" opacity="0.12"/>
  </pattern>
  
  <linearGradient id="d-batik-kawung-solo-sogan-fold" x1="0" y1="0" x2="1" y2="1">
    <stop offset="0%" stop-color="#ffffff" stop-opacity="0.20"/>
    <stop offset="22%" stop-color="#000000" stop-opacity="0.16"/>
    <stop offset="44%" stop-color="#ffffff" stop-opacity="0.14"/>
    <stop offset="63%" stop-color="#000000" stop-opacity="0.20"/>
    <stop offset="82%" stop-color="#ffffff" stop-opacity="0.10"/>
    <stop offset="100%" stop-color="#000000" stop-opacity="0.26"/>
  </linearGradient>
  <radialGradient id="v-batik-kawung-solo-sogan-fold" cx="50%" cy="42%" r="78%">
    <stop offset="55%" stop-color="#000000" stop-opacity="0"/>
    <stop offset="100%" stop-color="#000000" stop-opacity="0.42"/>
  </radialGradient>
  <linearGradient id="s-batik-kawung-solo-sogan-fold" x1="0" y1="0" x2="0.7" y2="1">
    <stop offset="0%" stop-color="#ffffff" stop-opacity="0.22"/>
    <stop offset="40%" stop-color="#ffffff" stop-opacity="0"/>
  </linearGradient>
    <linearGradient id="c-batik-kawung-solo-sogan-fold" x1="0" y1="0" x2="0" y2="1">
      <stop offset="0%" stop-color="#f6f1e7"/>
      <stop offset="100%" stop-color="#ddd2bd"/>
    </linearGradient>
  </defs>
  <rect width="1000" height="1250" fill="url(#c-batik-kawung-solo-sogan-fold)"/>
  
    <g transform="rotate(-6 500 280)">
      <rect x="-40" y="150" width="1080" height="260" fill="url(#p-batik-kawung-solo-sogan-fold)"/>
      <rect x="-40" y="150" width="1080" height="260" fill="url(#w-batik-kawung-solo-sogan-fold)"/>
      <rect x="-40" y="150" width="1080" height="12" fill="#ffffff" opacity="0.16"/>
      <rect x="-40" y="396" width="1080" height="14" fill="#000000" opacity="0.3"/>
    </g>
  
    <g transform="rotate(3 500 600)">
      <rect x="-40" y="470" width="1080" height="260" fill="url(#p-batik-kawung-solo-sogan-fold)"/>
      <rect x="-40" y="470" width="1080" height="260" fill="url(#w-batik-kawung-solo-sogan-fold)"/>
      <rect x="-40" y="470" width="1080" height="12" fill="#ffffff" opacity="0.16"/>
      <rect x="-40" y="716" width="1080" height="14" fill="#000000" opacity="0.34"/>
    </g>
  
    <g transform="rotate(-2 500 920)">
      <rect x="-40" y="790" width="1080" height="260" fill="url(#p-batik-kawung-solo-sogan-fold)"/>
      <rect x="-40" y="790" width="1080" height="260" fill="url(#w-batik-kawung-solo-sogan-fold)"/>
      <rect x="-40" y="790" width="1080" height="12" fill="#ffffff" opacity="0.16"/>
      <rect x="-40" y="1036" width="1080" height="14" fill="#000000" opacity="0.38"/>
    </g>
  <rect width="1000" height="1250" fill="url(#v-batik-kawung-solo-sogan-fold)" opacity="0.7"/>
</svg>