<svg xmlns="http://www.w3.org/2000/svg" viewBox="0 0 900 1200" width="900" height="1200" role="img">
  <defs>
  
  <linearGradient id="f-lipa-sabbe-bugis-sengkang-drape" x1="0" y1="0" x2="1" y2="0.4">
    <stop offset="0%" stop-color="#7d5f12"/>
    <stop offset="30%" stop-color="#f6e3a1"/>
    <stop offset="55%" stop-color="#c9a227"/>
    <stop offset="78%" stop-color="#f6e3a1"/>
    <stop offset="100%" stop-color="#7d5f12"/>
  </linearGradient>
  
  <pattern id="p-lipa-sabbe-bugis-sengkang-drape" width="110" height="110" patternUnits="userSpaceOnUse">
    <rect width="110" height="110" fill="#8c1220"/>
    <rect x="0" y="0" width="110" height="34" fill="#e8b923" opacity="0.85"/>
    <rect x="0" y="0" width="34" height="110" fill="#e8b923" opacity="0.85"/>
    <rect x="0" y="0" width="34" height="34" fill="#14524a"/>
    <rect x="52" y="0" width="6" height="110" fill="#f7ecc9" opacity="0.9"/>
    <rect x="0" y="52" width="110" height="6" fill="#f7ecc9" opacity="0.9"/>
    <rect x="84" y="0" width="2.5" height="110" fill="#f7ecc9" opacity="0.6"/>
    <rect x="0" y="84" width="110" height="2.5" fill="#f7ecc9" opacity="0.6"/>
  </pattern>
  
  <pattern id="w-lipa-sabbe-bugis-sengkang-drape" width="6" height="6" patternUnits="userSpaceOnUse">
    <rect width="6" height="6" fill="none"/>
    <path d="M0 0.5H6M0 3.5H6" stroke="#ffffff" stroke-width="0.6" opacity="0.16"/>
    <path d="M0.5 0V6M3.5 0V6" stroke="#000000" stroke-width="0.6" opacity="0.12"/>
  </pattern>
  
  <linearGradient id="d-lipa-sabbe-bugis-sengkang-drape" x1="0" y1="0" x2="1" y2="1">
    <stop offset="0%" stop-color="#ffffff" stop-opacity="0.20"/>
    <stop offset="22%" stop-color="#000000" stop-opacity="0.16"/>
    <stop offset="44%" stop-color="#ffffff" stop-opacity="0.14"/>
    <stop offset="63%" stop-color="#000000" stop-opacity="0.20"/>
    <stop offset="82%" stop-color="#ffffff" stop-opacity="0.10"/>
    <stop offset="100%" stop-color="#000000" stop-opacity="0.26"/>
  </linearGradient>
  <radialGradient id="v-lipa-sabbe-bugis-sengkang-drape" cx="50%" cy="42%" r="78%">
    <stop offset="55%" stop-color="#000000" stop-opacity="0"/>
    <stop offset="100%" stop-color="#000000" stop-opacity="0.42"/>
  </radialGradient>
  <linearGradient id="s-lipa-sabbe-bugis-sengkang-drape" x1="0" y1="0" x2="0.7" y2="1">
    <stop offset="0%" stop-color="#ffffff" stop-opacity="0.22"/>
    <stop offset="40%" stop-color="#ffffff" stop-opacity="0"/>
  </linearGradient></defs>
  <rect width="900" height="1200" fill="#8c1220"/>
  <g transform="scale(1.6)">
    <rect width="562.5" height="750" fill="url(#p-lipa-sabbe-bugis-sengkang-drape)"/>
  </g>
  <rect width="900" height="1200" fill="url(#w-lipa-sabbe-bugis-sengkang-drape)"/>
  <rect width="900" height="1200" fill="url(#d-lipa-sabbe-bugis-sengkang-drape)"/>
  <rect width="900" height="1200" fill="url(#s-lipa-sabbe-bugis-sengkang-drape)"/>
  <rect width="900" height="1200" fill="url(#v-lipa-sabbe-bugis-sengkang-drape)"/>
  <g opacity="0.5">
    <path d="M0 0 V1200" stroke="#000" stroke-width="26" opacity="0.18"/>
    <path d="M900 0 V1200" stroke="#000" stroke-width="26" opacity="0.18"/>
  </g>
</svg>