<svg xmlns="http://www.w3.org/2000/svg" viewBox="0 0 900 1200" width="900" height="1200" role="img">
  <defs>
  
  <linearGradient id="f-lurik-yogya-klasik-drape" x1="0" y1="0" x2="1" y2="0.4">
    <stop offset="0%" stop-color="#7d5f12"/>
    <stop offset="30%" stop-color="#f6e3a1"/>
    <stop offset="55%" stop-color="#c9a227"/>
    <stop offset="78%" stop-color="#f6e3a1"/>
    <stop offset="100%" stop-color="#7d5f12"/>
  </linearGradient>
  
  <pattern id="p-lurik-yogya-klasik-drape" width="114" height="120" patternUnits="userSpaceOnUse">
    <rect x="0" y="0" width="14" height="120" fill="#e3d9c6"/><rect x="14" y="0" width="4" height="120" fill="#3a3226"/><rect x="18" y="0" width="3" height="120" fill="#8c7856"/><rect x="21" y="0" width="22" height="120" fill="#e3d9c6"/><rect x="43" y="0" width="6" height="120" fill="#a8452e"/><rect x="49" y="0" width="3" height="120" fill="#3a3226"/><rect x="52" y="0" width="3" height="120" fill="#8c7856"/><rect x="55" y="0" width="11" height="120" fill="#e3d9c6"/><rect x="66" y="0" width="5" height="120" fill="#3a3226"/><rect x="71" y="0" width="30" height="120" fill="#e3d9c6"/><rect x="101" y="0" width="4" height="120" fill="#a8452e"/><rect x="105" y="0" width="9" height="120" fill="#3a3226"/>
    <path d="M0 0H114" stroke="#ffffff" stroke-width="120" opacity="0"/>
  </pattern>
  
  <pattern id="w-lurik-yogya-klasik-drape" width="6" height="6" patternUnits="userSpaceOnUse">
    <rect width="6" height="6" fill="none"/>
    <path d="M0 0.5H6M0 3.5H6" stroke="#ffffff" stroke-width="0.6" opacity="0.16"/>
    <path d="M0.5 0V6M3.5 0V6" stroke="#000000" stroke-width="0.6" opacity="0.12"/>
  </pattern>
  
  <linearGradient id="d-lurik-yogya-klasik-drape" x1="0" y1="0" x2="1" y2="1">
    <stop offset="0%" stop-color="#ffffff" stop-opacity="0.20"/>
    <stop offset="22%" stop-color="#000000" stop-opacity="0.16"/>
    <stop offset="44%" stop-color="#ffffff" stop-opacity="0.14"/>
    <stop offset="63%" stop-color="#000000" stop-opacity="0.20"/>
    <stop offset="82%" stop-color="#ffffff" stop-opacity="0.10"/>
    <stop offset="100%" stop-color="#000000" stop-opacity="0.26"/>
  </linearGradient>
  <radialGradient id="v-lurik-yogya-klasik-drape" cx="50%" cy="42%" r="78%">
    <stop offset="55%" stop-color="#000000" stop-opacity="0"/>
    <stop offset="100%" stop-color="#000000" stop-opacity="0.42"/>
  </radialGradient>
  <linearGradient id="s-lurik-yogya-klasik-drape" x1="0" y1="0" x2="0.7" y2="1">
    <stop offset="0%" stop-color="#ffffff" stop-opacity="0.22"/>
    <stop offset="40%" stop-color="#ffffff" stop-opacity="0"/>
  </linearGradient></defs>
  <rect width="900" height="1200" fill="#e3d9c6"/>
  <g transform="scale(1.6)">
    <rect width="562.5" height="750" fill="url(#p-lurik-yogya-klasik-drape)"/>
  </g>
  <rect width="900" height="1200" fill="url(#w-lurik-yogya-klasik-drape)"/>
  <rect width="900" height="1200" fill="url(#d-lurik-yogya-klasik-drape)"/>
  <rect width="900" height="1200" fill="url(#s-lurik-yogya-klasik-drape)"/>
  <rect width="900" height="1200" fill="url(#v-lurik-yogya-klasik-drape)"/>
  <g opacity="0.5">
    <path d="M0 0 V1200" stroke="#000" stroke-width="26" opacity="0.18"/>
    <path d="M900 0 V1200" stroke="#000" stroke-width="26" opacity="0.18"/>
  </g>
</svg>