<svg xmlns="http://www.w3.org/2000/svg" viewBox="0 0 1000 1250" width="1000" height="1250" role="img">
  <defs>
    
  
  <linearGradient id="f-sasirangan-banjar-gelombang-fold" x1="0" y1="0" x2="1" y2="0.4">
    <stop offset="0%" stop-color="#7d5f12"/>
    <stop offset="30%" stop-color="#f6e3a1"/>
    <stop offset="55%" stop-color="#c9a227"/>
    <stop offset="78%" stop-color="#f6e3a1"/>
    <stop offset="100%" stop-color="#7d5f12"/>
  </linearGradient>
  
  <pattern id="p-sasirangan-banjar-gelombang-fold" width="160" height="160" patternUnits="userSpaceOnUse">
    <rect width="160" height="160" fill="#3d1445"/>
    <path d="M0 12 q 20 -14 40 0 q 20 14 40 0 q 20 -14 40 0 q 20 14 40 0" fill="none" stroke="#c4247a" stroke-width="9" stroke-linecap="round" opacity="0.85"/><path d="M0 34 q 20 -14 40 0 q 20 14 40 0 q 20 -14 40 0 q 20 14 40 0" fill="none" stroke="#f0a020" stroke-width="5" stroke-linecap="round" opacity="0.85"/><path d="M0 56 q 20 -14 40 0 q 20 14 40 0 q 20 -14 40 0 q 20 14 40 0" fill="none" stroke="#f2b3d4" stroke-width="9" stroke-linecap="round" opacity="0.85"/><path d="M0 78 q 20 -14 40 0 q 20 14 40 0 q 20 -14 40 0 q 20 14 40 0" fill="none" stroke="#c4247a" stroke-width="5" stroke-linecap="round" opacity="0.85"/><path d="M0 100 q 20 -14 40 0 q 20 14 40 0 q 20 -14 40 0 q 20 14 40 0" fill="none" stroke="#f0a020" stroke-width="9" stroke-linecap="round" opacity="0.85"/><path d="M0 122 q 20 -14 40 0 q 20 14 40 0 q 20 -14 40 0 q 20 14 40 0" fill="none" stroke="#f2b3d4" stroke-width="5" stroke-linecap="round" opacity="0.85"/><path d="M0 144 q 20 -14 40 0 q 20 14 40 0 q 20 -14 40 0 q 20 14 40 0" fill="none" stroke="#c4247a" stroke-width="9" stroke-linecap="round" opacity="0.85"/>
    <path d="M0 0V160M53 0V160M107 0V160" stroke="#f2b3d4" stroke-width="1.5" stroke-dasharray="4 8" opacity="0.5"/>
  </pattern>
  
  <pattern id="w-sasirangan-banjar-gelombang-fold" width="6" height="6" patternUnits="userSpaceOnUse">
    <rect width="6" height="6" fill="none"/>
    <path d="M0 0.5H6M0 3.5H6" stroke="#ffffff" stroke-width="0.6" opacity="0.16"/>
    <path d="M0.5 0V6M3.5 0V6" stroke="#000000" stroke-width="0.6" opacity="0.12"/>
  </pattern>
  
  <linearGradient id="d-sasirangan-banjar-gelombang-fold" x1="0" y1="0" x2="1" y2="1">
    <stop offset="0%" stop-color="#ffffff" stop-opacity="0.20"/>
    <stop offset="22%" stop-color="#000000" stop-opacity="0.16"/>
    <stop offset="44%" stop-color="#ffffff" stop-opacity="0.14"/>
    <stop offset="63%" stop-color="#000000" stop-opacity="0.20"/>
    <stop offset="82%" stop-color="#ffffff" stop-opacity="0.10"/>
    <stop offset="100%" stop-color="#000000" stop-opacity="0.26"/>
  </linearGradient>
  <radialGradient id="v-sasirangan-banjar-gelombang-fold" cx="50%" cy="42%" r="78%">
    <stop offset="55%" stop-color="#000000" stop-opacity="0"/>
    <stop offset="100%" stop-color="#000000" stop-opacity="0.42"/>
  </radialGradient>
  <linearGradient id="s-sasirangan-banjar-gelombang-fold" x1="0" y1="0" x2="0.7" y2="1">
    <stop offset="0%" stop-color="#ffffff" stop-opacity="0.22"/>
    <stop offset="40%" stop-color="#ffffff" stop-opacity="0"/>
  </linearGradient>
    <linearGradient id="c-sasirangan-banjar-gelombang-fold" x1="0" y1="0" x2="0" y2="1">
      <stop offset="0%" stop-color="#f6f1e7"/>
      <stop offset="100%" stop-color="#ddd2bd"/>
    </linearGradient>
  </defs>
  <rect width="1000" height="1250" fill="url(#c-sasirangan-banjar-gelombang-fold)"/>
  
    <g transform="rotate(-6 500 280)">
      <rect x="-40" y="150" width="1080" height="260" fill="url(#p-sasirangan-banjar-gelombang-fold)"/>
      <rect x="-40" y="150" width="1080" height="260" fill="url(#w-sasirangan-banjar-gelombang-fold)"/>
      <rect x="-40" y="150" width="1080" height="12" fill="#ffffff" opacity="0.16"/>
      <rect x="-40" y="396" width="1080" height="14" fill="#000000" opacity="0.3"/>
    </g>
  
    <g transform="rotate(3 500 600)">
      <rect x="-40" y="470" width="1080" height="260" fill="url(#p-sasirangan-banjar-gelombang-fold)"/>
      <rect x="-40" y="470" width="1080" height="260" fill="url(#w-sasirangan-banjar-gelombang-fold)"/>
      <rect x="-40" y="470" width="1080" height="12" fill="#ffffff" opacity="0.16"/>
      <rect x="-40" y="716" width="1080" height="14" fill="#000000" opacity="0.34"/>
    </g>
  
    <g transform="rotate(-2 500 920)">
      <rect x="-40" y="790" width="1080" height="260" fill="url(#p-sasirangan-banjar-gelombang-fold)"/>
      <rect x="-40" y="790" width="1080" height="260" fill="url(#w-sasirangan-banjar-gelombang-fold)"/>
      <rect x="-40" y="790" width="1080" height="12" fill="#ffffff" opacity="0.16"/>
      <rect x="-40" y="1036" width="1080" height="14" fill="#000000" opacity="0.38"/>
    </g>
  <rect width="1000" height="1250" fill="url(#v-sasirangan-banjar-gelombang-fold)" opacity="0.7"/>
</svg>